<svg xmlns="http://www.w3.org/2000/svg" xmlns:xlink="http://www.w3.org/1999/xlink" width="500" zoomAndPan="magnify" viewBox="0 0 375 374.999991" height="500" preserveAspectRatio="xMidYMid meet" version="1.0"><defs><clipPath id="22afefc9a9"><path d="M 51 37.5 L 328.875 37.5 L 328.875 337.5 L 51 337.5 Z M 51 37.5 " clip-rule="nonzero"/></clipPath></defs><path fill="#7ed957" d="M 182.863281 124.433594 C 183.085938 130.402344 182.074219 130.492188 179.863281 130.699219 C 178.367188 130.835938 176.503906 131.003906 174.847656 132.421875 C 171.277344 135.480469 174.640625 149.113281 176.257812 154.828125 C 178.480469 162.71875 182.050781 172.273438 186.445312 172.972656 C 187.367188 173.125 187.972656 175.457031 188.515625 177.515625 C 189.605469 181.703125 191.425781 188.710938 199.9375 187.019531 C 201.652344 186.679688 203.328125 186.3125 204.941406 185.964844 C 212.53125 184.3125 219.089844 182.890625 220.890625 185.980469 C 224.28125 191.800781 228.15625 197.328125 238.261719 200.992188 C 240.894531 201.949219 243.433594 203.136719 245.886719 204.289062 C 249.910156 206.179688 253.109375 207.671875 255.660156 207.671875 C 256.535156 207.671875 257.335938 207.496094 258.066406 207.101562 C 258.976562 206.609375 260.136719 205.542969 260.460938 203.261719 C 261.019531 199.332031 258.9375 196.195312 256.921875 193.164062 C 255.136719 190.480469 253.457031 187.949219 253.457031 184.890625 C 253.457031 179.734375 246.246094 177.636719 237.121094 174.976562 C 229.578125 172.78125 220.1875 170.046875 218.988281 165.875 C 218.789062 165.1875 218.578125 164.476562 218.371094 163.753906 C 216.359375 156.894531 213.601562 147.503906 216.011719 143.394531 C 216.625 142.34375 217.554688 141.707031 218.941406 141.394531 C 223.585938 140.335938 227.449219 136.367188 229.8125 130.230469 C 231.851562 124.933594 232.660156 117.773438 230.257812 114.34375 C 229.878906 113.800781 229.5 113.285156 229.128906 112.78125 C 226.621094 109.367188 224.957031 107.113281 226.625 100.78125 C 228.1875 94.84375 226.066406 91.273438 223.566406 89.914062 C 221.226562 88.644531 218.398438 89.046875 215.988281 90.886719 C 212.152344 88.386719 202.171875 82.535156 194.898438 84.15625 C 192.222656 84.75 190.1875 86.257812 188.851562 88.625 C 182.800781 99.316406 182.429688 112.726562 182.863281 124.433594 Z M 187.207031 124.273438 C 186.796875 113.171875 187.117188 100.511719 192.628906 90.761719 C 193.363281 89.472656 194.375 88.722656 195.839844 88.390625 C 201.582031 87.113281 211.566406 93.023438 214.933594 95.410156 L 216.503906 96.527344 L 217.800781 95.105469 C 219.054688 93.730469 220.5 93.1875 221.496094 93.726562 C 222.582031 94.3125 223.296875 96.382812 222.425781 99.671875 C 220.230469 108.011719 222.851562 111.574219 225.628906 115.351562 C 225.976562 115.824219 226.339844 116.316406 226.699219 116.824219 C 227.652344 118.1875 227.867188 123.1875 225.757812 128.664062 C 223.957031 133.339844 221.117188 136.433594 217.972656 137.152344 C 215.410156 137.742188 213.492188 139.097656 212.269531 141.191406 C 208.90625 146.921875 211.847656 156.929688 214.207031 164.976562 C 214.414062 165.695312 214.621094 166.398438 214.816406 167.074219 C 216.683594 173.542969 226.457031 176.394531 235.914062 179.148438 C 240.851562 180.589844 249.125 183 249.125 184.890625 C 249.125 189.257812 251.351562 192.613281 253.3125 195.5625 C 255.019531 198.136719 256.492188 200.359375 256.171875 202.648438 C 256.105469 203.105469 256.003906 203.273438 256.007812 203.28125 C 254.992188 203.746094 250.632812 201.703125 247.746094 200.351562 C 245.320312 199.21875 242.574219 197.929688 239.761719 196.90625 C 231.011719 193.734375 227.746094 189.097656 224.664062 183.796875 C 222.929688 180.820312 219.996094 179.820312 216.3125 179.820312 C 212.785156 179.820312 208.558594 180.738281 204.042969 181.722656 C 202.453125 182.070312 200.800781 182.425781 199.109375 182.761719 C 195.011719 183.574219 194.105469 181.667969 192.742188 176.425781 C 191.875 173.074219 190.882812 169.277344 187.230469 168.703125 C 186.71875 168.492188 184.871094 166.492188 182.449219 159.847656 C 178.65625 149.441406 176.953125 137.765625 177.828125 135.625 C 178.390625 135.222656 179.140625 135.132812 180.277344 135.03125 C 184.890625 134.605469 187.519531 132.707031 187.207031 124.273438 Z M 187.207031 124.273438 " fill-opacity="1" fill-rule="nonzero"/><path fill="#7ed957" d="M 207.742188 228.984375 C 208.914062 228.984375 210.203125 228.828125 211.636719 228.492188 C 223.457031 225.730469 221.191406 214.042969 219.976562 207.769531 C 219.671875 206.183594 219.289062 204.203125 219.40625 203.605469 C 219.5625 202.828125 219.515625 201.636719 218.363281 200.371094 C 215.230469 196.902344 204.199219 193.855469 197.28125 194.542969 C 193.777344 194.890625 191.464844 196.152344 190.402344 198.28125 C 189.316406 200.464844 189.761719 203.214844 191.734375 206.449219 C 193.507812 209.351562 194.585938 212.664062 195.636719 215.867188 C 197.664062 222.070312 199.925781 228.984375 207.742188 228.984375 Z M 195.449219 204.191406 C 194.371094 202.421875 193.9375 200.933594 194.296875 200.21875 C 194.628906 199.554688 195.90625 199.050781 197.710938 198.871094 C 198.289062 198.808594 198.882812 198.785156 199.5 198.785156 C 205.734375 198.785156 213.636719 201.558594 215.082031 203.195312 C 214.9375 204.589844 215.28125 206.382812 215.710938 208.597656 C 217.234375 216.449219 217.824219 222.589844 210.652344 224.261719 C 203.796875 225.863281 202.363281 222.433594 199.769531 214.519531 C 198.695312 211.242188 197.484375 207.527344 195.449219 204.191406 Z M 195.449219 204.191406 " fill-opacity="1" fill-rule="nonzero"/><path fill="#7ed957" d="M 222.835938 265.859375 C 223.710938 266.257812 224.65625 266.808594 225.664062 267.390625 C 228.257812 268.890625 231.421875 270.726562 234.9375 270.726562 C 237.253906 270.726562 239.71875 269.929688 242.273438 267.71875 C 250.3125 260.753906 256.03125 251.398438 258.390625 241.375 C 260.472656 232.519531 255.628906 226.921875 252.097656 222.828125 C 250.800781 221.328125 249.570312 219.90625 248.941406 218.632812 C 246.691406 214.109375 243.148438 210.832031 239.464844 209.863281 C 236.707031 209.136719 233.878906 209.675781 231.300781 211.421875 L 230.945312 211.660156 L 230.710938 212.015625 C 230.382812 212.515625 222.617188 224.308594 226.601562 232.78125 C 229.511719 238.96875 227.730469 241.871094 222.335938 246.433594 C 218.878906 249.355469 217.117188 253.914062 217.726562 258.335938 C 218.203125 261.808594 220.117188 264.625 222.835938 265.859375 Z M 225.136719 249.742188 C 230.292969 245.382812 234.953125 240.335938 230.527344 230.929688 C 228.1875 225.949219 232.097656 217.933594 234.078125 214.792969 C 235.511719 213.925781 236.914062 213.691406 238.355469 214.066406 C 241.289062 214.84375 243.730469 217.933594 245.039062 220.570312 C 245.914062 222.34375 247.320312 223.960938 248.800781 225.679688 C 252.203125 229.613281 255.726562 233.6875 254.152344 240.382812 C 251.257812 252.714844 243.679688 260.746094 239.425781 264.4375 C 235.613281 267.742188 232.507812 266.339844 227.84375 263.632812 C 226.789062 263.023438 225.703125 262.390625 224.632812 261.90625 C 223.277344 261.292969 222.304688 259.734375 222.03125 257.734375 C 221.707031 255.414062 222.355469 252.097656 225.136719 249.742188 Z M 225.136719 249.742188 " fill-opacity="1" fill-rule="nonzero"/><path fill="#7ed957" d="M 263.292969 267.804688 C 259.410156 270.601562 255.007812 273.773438 256.34375 278.515625 C 256.421875 278.800781 256.457031 278.992188 256.464844 279.113281 C 255.839844 279.371094 254.148438 279.515625 252.875 279.628906 C 249.210938 279.953125 243.664062 280.441406 237.90625 283.726562 C 228.769531 288.949219 218.675781 298.003906 218.316406 303.527344 C 218.214844 305.050781 218.789062 306.371094 219.929688 307.234375 C 221.257812 308.242188 222.664062 308.59375 224.082031 308.59375 C 225.757812 308.59375 227.449219 308.105469 229.019531 307.648438 C 230.992188 307.078125 232.859375 306.539062 234.421875 306.949219 C 239.863281 308.371094 246.238281 305.597656 250.53125 303.738281 L 249.664062 301.746094 L 248.730469 299.785156 C 245.0625 301.378906 239.519531 303.792969 235.523438 302.746094 C 232.804688 302.039062 230.160156 302.800781 227.820312 303.472656 C 225.34375 304.1875 223.746094 304.597656 222.640625 303.832031 C 222.46875 301.691406 229.492188 293.542969 240.058594 287.5 C 244.992188 284.683594 249.769531 284.261719 253.253906 283.957031 C 256.363281 283.679688 258.816406 283.46875 260.113281 281.585938 C 260.878906 280.46875 261.019531 279.078125 260.519531 277.324219 C 260.011719 275.515625 262.96875 273.382812 265.828125 271.320312 C 269.410156 268.738281 273.472656 265.8125 272.886719 261.570312 C 272.320312 257.496094 271.589844 254.429688 271.132812 252.75 C 272.628906 251.621094 273.960938 251.128906 275.105469 251.285156 C 277.800781 251.65625 280.253906 255.535156 282.625 259.277344 C 285.011719 263.050781 287.261719 266.617188 290.449219 268.085938 L 292.273438 264.136719 C 290.25 263.203125 288.238281 260.027344 286.296875 256.949219 C 283.390625 252.359375 280.390625 247.621094 275.695312 246.972656 C 272.929688 246.589844 270.144531 247.703125 267.191406 250.367188 L 266.140625 251.316406 L 266.578125 252.660156 C 266.59375 252.695312 267.78125 256.351562 268.578125 262.152344 C 268.8125 263.824219 265.878906 265.9375 263.292969 267.804688 Z M 263.292969 267.804688 " fill-opacity="1" fill-rule="nonzero"/><path fill="#7ed957" d="M 183.679688 224.070312 C 179.058594 224.21875 173.898438 227.203125 172.777344 233.519531 C 172.398438 235.644531 171.976562 237.90625 171.300781 240.136719 C 169.355469 246.570312 158.914062 257.292969 151.296875 265.121094 C 143.597656 273.03125 140.933594 275.878906 140.933594 278.113281 C 140.933594 280.324219 142.558594 282.257812 145.074219 283.03125 C 145.855469 283.273438 146.722656 283.410156 147.652344 283.410156 C 151.722656 283.410156 157.050781 280.867188 162.011719 273.601562 C 166.183594 267.496094 171.808594 264.605469 176.773438 262.0625 C 181.46875 259.648438 185.527344 257.566406 187.273438 253.386719 C 188.464844 250.53125 190.6875 248.21875 192.648438 246.179688 C 195.457031 243.265625 198.636719 239.957031 196.308594 236.003906 C 196.03125 235.542969 195.617188 234.613281 195.179688 232.816406 C 193.660156 226.558594 188.347656 223.914062 183.679688 224.070312 Z M 189.527344 243.15625 C 187.410156 245.351562 184.777344 248.09375 183.269531 251.699219 C 182.136719 254.417969 178.894531 256.078125 174.792969 258.1875 C 169.636719 260.832031 163.222656 264.125 158.429688 271.140625 C 153.324219 278.609375 148.441406 279.523438 146.359375 278.875 C 145.734375 278.683594 145.433594 278.394531 145.324219 278.21875 C 146.125 276.660156 150.703125 271.957031 154.410156 268.144531 C 162.785156 259.542969 173.214844 248.839844 175.464844 241.390625 C 176.207031 238.933594 176.65625 236.527344 177.054688 234.277344 C 177.796875 230.089844 181.15625 228.496094 183.816406 228.40625 C 186.460938 228.316406 189.949219 229.691406 190.960938 233.832031 C 191.425781 235.710938 191.945312 237.132812 192.570312 238.1875 C 193.132812 239.148438 192.304688 240.269531 189.527344 243.15625 Z M 189.527344 243.15625 " fill-opacity="1" fill-rule="nonzero"/><path fill="#7ed957" d="M 298.546875 211.457031 C 296.632812 208.476562 292.835938 204.679688 285.617188 203.554688 C 282.167969 203.023438 279.066406 202.738281 276.394531 202.722656 C 276.378906 202.722656 276.359375 202.722656 276.34375 202.722656 C 273.871094 202.722656 271.566406 203.941406 270.160156 205.996094 C 268.769531 208.042969 268.480469 210.625 269.394531 212.898438 C 271.144531 217.277344 274.234375 220.621094 278.320312 222.550781 C 281.53125 224.070312 282.277344 227.363281 283.144531 231.179688 C 284.273438 236.140625 285.671875 242.316406 294.011719 242.910156 C 294.484375 242.945312 294.9375 242.957031 295.375 242.957031 C 298.222656 242.957031 300.214844 242.226562 301.441406 240.738281 C 303.5625 238.152344 302.550781 234.4375 301.566406 230.851562 C 300.929688 228.511719 300.203125 225.863281 300.648438 224.28125 C 301.804688 220.195312 301.003906 215.28125 298.546875 211.457031 Z M 298.085938 237.972656 C 297.929688 238.164062 297.199219 238.765625 294.328125 238.566406 C 289.433594 238.21875 288.582031 235.457031 287.394531 230.207031 C 286.414062 225.910156 285.3125 221.035156 280.1875 218.617188 C 277.066406 217.140625 274.792969 214.667969 273.4375 211.277344 C 273.058594 210.328125 273.175781 209.296875 273.761719 208.441406 C 274.355469 207.5625 275.296875 207.066406 276.347656 207.066406 C 276.355469 207.066406 276.367188 207.066406 276.371094 207.066406 C 278.832031 207.082031 281.71875 207.347656 284.957031 207.851562 C 290.578125 208.722656 293.464844 211.570312 294.898438 213.804688 C 297.054688 217.164062 297.132812 220.804688 296.484375 223.09375 C 295.710938 225.832031 296.5625 228.964844 297.390625 231.988281 C 297.972656 234.15625 298.78125 237.125 298.085938 237.972656 Z M 298.085938 237.972656 " fill-opacity="1" fill-rule="nonzero"/><g clip-path="url(#22afefc9a9)"><path fill="#7ed957" d="M 292.945312 109.714844 C 269.957031 84.738281 238.753906 69.347656 205.074219 66.371094 L 204.691406 70.703125 C 272.964844 76.734375 324.449219 133.039062 324.449219 201.671875 C 324.449219 274.171875 265.46875 333.15625 192.964844 333.15625 C 120.46875 333.15625 61.480469 274.175781 61.480469 201.671875 C 61.480469 200.125 61.519531 198.574219 61.570312 197.039062 C 62.257812 197.082031 63.054688 197.113281 63.976562 197.113281 C 68.945312 197.113281 77.226562 196.285156 87.636719 192.15625 C 103.085938 186.03125 126.460938 171.082031 150.066406 134.652344 C 195.199219 65.011719 188.183594 40.105469 187.859375 39.078125 L 187.367188 37.5 L 185.710938 37.554688 C 184.921875 37.578125 166.042969 38.285156 142.355469 45.042969 C 120.402344 51.304688 90.1875 64.171875 70.890625 89.910156 C 50.765625 116.761719 46.140625 152.164062 57.144531 195.148438 L 57.277344 195.679688 C 57.191406 197.671875 57.136719 199.667969 57.136719 201.679688 C 57.144531 276.570312 118.074219 337.5 192.972656 337.5 C 267.871094 337.5 328.800781 276.570312 328.800781 201.671875 C 328.800781 167.503906 316.066406 134.84375 292.945312 109.714844 Z M 74.351562 92.53125 C 106.753906 49.285156 171.976562 42.835938 183.953125 42.007812 C 184.546875 48.484375 183.78125 74.640625 146.429688 132.28125 C 123.582031 167.542969 101.164062 182.027344 86.386719 187.96875 C 74.605469 192.707031 65.6875 192.898438 61.800781 192.679688 C 63.984375 159.828125 78.136719 129.511719 102.214844 106.53125 L 99.214844 103.386719 C 76.980469 124.609375 62.941406 151.890625 58.597656 181.679688 C 51.738281 145.625 57.019531 115.675781 74.351562 92.53125 Z M 74.351562 92.53125 " fill-opacity="1" fill-rule="nonzero"/></g><path fill="#7ed957" d="M 131.011719 224.113281 C 125.574219 218.179688 120.601562 218.699219 116.609375 219.125 C 112.980469 219.511719 110.359375 219.785156 107.136719 215.761719 C 98.207031 204.59375 76.78125 213.859375 75.875 214.261719 L 77.628906 218.238281 C 82.960938 215.890625 98.039062 211.355469 103.738281 218.476562 C 108.445312 224.363281 113.226562 223.859375 117.066406 223.453125 C 120.707031 223.066406 123.851562 222.730469 127.804688 227.050781 C 131.394531 230.96875 129.589844 233.988281 125.820312 239.429688 C 122.683594 243.960938 118.777344 249.59375 121.386719 256.386719 C 124.589844 264.714844 109.222656 273.492188 103.039062 276.175781 L 104.761719 280.164062 C 105.828125 279.703125 130.789062 268.734375 125.441406 254.824219 C 123.652344 250.183594 126.4375 246.160156 129.390625 241.90625 C 132.828125 236.941406 137.105469 230.765625 131.011719 224.113281 Z M 131.011719 224.113281 " fill-opacity="1" fill-rule="nonzero"/></svg>